<mxfile host="app.diagrams.net" modified="2022-04-17T13:11:44.163Z" agent="5.0 (Windows NT 10.0; Win64; x64) AppleWebKit/537.36 (KHTML, like Gecko) Chrome/100.0.4896.75 Safari/537.36 Edg/100.0.1185.39" etag="chk1HkBlMPAR1krUheIe" version="17.4.5" type="github">
  <diagram id="R2lEEEUBdFMjLlhIrx00" name="Page-1">
    <mxGraphModel dx="1145" dy="662" grid="1" gridSize="10" guides="1" tooltips="1" connect="1" arrows="1" fold="1" page="1" pageScale="1" pageWidth="850" pageHeight="1100" math="0" shadow="0" extFonts="Permanent Marker^https://fonts.googleapis.com/css?family=Permanent+Marker">
      <root>
        <mxCell id="0" />
        <mxCell id="1" parent="0" />
        <mxCell id="xMLn6wLN37BedrmqbdG--3" value="教师" style="rounded=0;whiteSpace=wrap;html=1;" vertex="1" parent="1">
          <mxGeometry x="170" y="160" width="120" height="60" as="geometry" />
        </mxCell>
        <mxCell id="xMLn6wLN37BedrmqbdG--4" value="教师号" style="ellipse;whiteSpace=wrap;html=1;" vertex="1" parent="1">
          <mxGeometry x="50" y="90" width="80" height="50" as="geometry" />
        </mxCell>
        <mxCell id="xMLn6wLN37BedrmqbdG--5" value="用户名" style="ellipse;whiteSpace=wrap;html=1;" vertex="1" parent="1">
          <mxGeometry x="50" y="160" width="80" height="50" as="geometry" />
        </mxCell>
        <mxCell id="xMLn6wLN37BedrmqbdG--7" value="密码" style="ellipse;whiteSpace=wrap;html=1;" vertex="1" parent="1">
          <mxGeometry x="50" y="240" width="80" height="50" as="geometry" />
        </mxCell>
        <mxCell id="xMLn6wLN37BedrmqbdG--8" value="联系方式" style="ellipse;whiteSpace=wrap;html=1;" vertex="1" parent="1">
          <mxGeometry x="170" y="90" width="80" height="50" as="geometry" />
        </mxCell>
        <mxCell id="xMLn6wLN37BedrmqbdG--9" value="提交状态" style="ellipse;whiteSpace=wrap;html=1;" vertex="1" parent="1">
          <mxGeometry x="280" y="90" width="80" height="50" as="geometry" />
        </mxCell>
        <mxCell id="xMLn6wLN37BedrmqbdG--10" value="" style="endArrow=none;html=1;rounded=0;" edge="1" parent="1">
          <mxGeometry width="50" height="50" relative="1" as="geometry">
            <mxPoint x="130" y="260" as="sourcePoint" />
            <mxPoint x="170" y="220" as="targetPoint" />
          </mxGeometry>
        </mxCell>
        <mxCell id="xMLn6wLN37BedrmqbdG--11" value="" style="endArrow=none;html=1;rounded=0;" edge="1" parent="1">
          <mxGeometry width="50" height="50" relative="1" as="geometry">
            <mxPoint x="290" y="170" as="sourcePoint" />
            <mxPoint x="320" y="140" as="targetPoint" />
          </mxGeometry>
        </mxCell>
        <mxCell id="xMLn6wLN37BedrmqbdG--12" value="" style="endArrow=none;html=1;rounded=0;entryX=0;entryY=0.5;entryDx=0;entryDy=0;" edge="1" parent="1" target="xMLn6wLN37BedrmqbdG--3">
          <mxGeometry width="50" height="50" relative="1" as="geometry">
            <mxPoint x="130" y="190" as="sourcePoint" />
            <mxPoint x="180" y="140" as="targetPoint" />
          </mxGeometry>
        </mxCell>
        <mxCell id="xMLn6wLN37BedrmqbdG--13" value="" style="endArrow=none;html=1;rounded=0;entryX=0.625;entryY=1;entryDx=0;entryDy=0;entryPerimeter=0;" edge="1" parent="1" target="xMLn6wLN37BedrmqbdG--8">
          <mxGeometry width="50" height="50" relative="1" as="geometry">
            <mxPoint x="220" y="160" as="sourcePoint" />
            <mxPoint x="270" y="110" as="targetPoint" />
          </mxGeometry>
        </mxCell>
        <mxCell id="xMLn6wLN37BedrmqbdG--14" value="" style="endArrow=none;html=1;rounded=0;entryX=1;entryY=1;entryDx=0;entryDy=0;exitX=0;exitY=0;exitDx=0;exitDy=0;" edge="1" parent="1" source="xMLn6wLN37BedrmqbdG--3" target="xMLn6wLN37BedrmqbdG--4">
          <mxGeometry width="50" height="50" relative="1" as="geometry">
            <mxPoint x="130" y="190" as="sourcePoint" />
            <mxPoint x="180" y="140" as="targetPoint" />
          </mxGeometry>
        </mxCell>
        <mxCell id="xMLn6wLN37BedrmqbdG--15" value="教材" style="rounded=0;whiteSpace=wrap;html=1;" vertex="1" parent="1">
          <mxGeometry x="160" y="510" width="120" height="60" as="geometry" />
        </mxCell>
        <mxCell id="xMLn6wLN37BedrmqbdG--18" value="教材名称" style="ellipse;whiteSpace=wrap;html=1;" vertex="1" parent="1">
          <mxGeometry x="140" y="590" width="80" height="50" as="geometry" />
        </mxCell>
        <mxCell id="xMLn6wLN37BedrmqbdG--20" value="教材作者" style="ellipse;whiteSpace=wrap;html=1;" vertex="1" parent="1">
          <mxGeometry x="40" y="590" width="80" height="50" as="geometry" />
        </mxCell>
        <mxCell id="xMLn6wLN37BedrmqbdG--21" value="教材ISBN" style="ellipse;whiteSpace=wrap;html=1;" vertex="1" parent="1">
          <mxGeometry x="40" y="515" width="80" height="50" as="geometry" />
        </mxCell>
        <mxCell id="xMLn6wLN37BedrmqbdG--22" value="教材定价" style="ellipse;whiteSpace=wrap;html=1;" vertex="1" parent="1">
          <mxGeometry x="240" y="590" width="80" height="50" as="geometry" />
        </mxCell>
        <mxCell id="xMLn6wLN37BedrmqbdG--23" value="出版社" style="ellipse;whiteSpace=wrap;html=1;" vertex="1" parent="1">
          <mxGeometry x="40" y="440" width="80" height="50" as="geometry" />
        </mxCell>
        <mxCell id="xMLn6wLN37BedrmqbdG--24" value="版号" style="ellipse;whiteSpace=wrap;html=1;" vertex="1" parent="1">
          <mxGeometry x="340" y="590" width="80" height="50" as="geometry" />
        </mxCell>
        <mxCell id="xMLn6wLN37BedrmqbdG--25" value="" style="endArrow=none;html=1;rounded=0;entryX=0;entryY=0;entryDx=0;entryDy=0;exitX=1;exitY=0.6;exitDx=0;exitDy=0;exitPerimeter=0;" edge="1" parent="1" source="xMLn6wLN37BedrmqbdG--23" target="xMLn6wLN37BedrmqbdG--15">
          <mxGeometry width="50" height="50" relative="1" as="geometry">
            <mxPoint x="120" y="480" as="sourcePoint" />
            <mxPoint x="160" y="480" as="targetPoint" />
          </mxGeometry>
        </mxCell>
        <mxCell id="xMLn6wLN37BedrmqbdG--26" value="" style="endArrow=none;html=1;rounded=0;entryX=0;entryY=0.5;entryDx=0;entryDy=0;" edge="1" parent="1">
          <mxGeometry width="50" height="50" relative="1" as="geometry">
            <mxPoint x="120" y="539.5799999999999" as="sourcePoint" />
            <mxPoint x="160" y="539.5799999999999" as="targetPoint" />
          </mxGeometry>
        </mxCell>
        <mxCell id="xMLn6wLN37BedrmqbdG--27" value="" style="endArrow=none;html=1;rounded=0;exitX=1.01;exitY=0.31;exitDx=0;exitDy=0;exitPerimeter=0;" edge="1" parent="1" source="xMLn6wLN37BedrmqbdG--20">
          <mxGeometry width="50" height="50" relative="1" as="geometry">
            <mxPoint x="130" y="560" as="sourcePoint" />
            <mxPoint x="160" y="570" as="targetPoint" />
          </mxGeometry>
        </mxCell>
        <mxCell id="xMLn6wLN37BedrmqbdG--28" value="" style="endArrow=none;html=1;rounded=0;entryX=0.382;entryY=0.994;entryDx=0;entryDy=0;entryPerimeter=0;exitX=0.635;exitY=0.01;exitDx=0;exitDy=0;exitPerimeter=0;" edge="1" parent="1" source="xMLn6wLN37BedrmqbdG--18" target="xMLn6wLN37BedrmqbdG--15">
          <mxGeometry width="50" height="50" relative="1" as="geometry">
            <mxPoint x="210" y="590" as="sourcePoint" />
            <mxPoint x="250" y="590" as="targetPoint" />
          </mxGeometry>
        </mxCell>
        <mxCell id="xMLn6wLN37BedrmqbdG--29" value="" style="endArrow=none;html=1;rounded=0;entryX=0;entryY=0.5;entryDx=0;entryDy=0;exitX=0.917;exitY=1;exitDx=0;exitDy=0;exitPerimeter=0;" edge="1" parent="1" source="xMLn6wLN37BedrmqbdG--15">
          <mxGeometry width="50" height="50" relative="1" as="geometry">
            <mxPoint x="240" y="589.1700000000001" as="sourcePoint" />
            <mxPoint x="280" y="589.1700000000001" as="targetPoint" />
          </mxGeometry>
        </mxCell>
        <mxCell id="xMLn6wLN37BedrmqbdG--31" value="" style="endArrow=none;html=1;rounded=0;entryX=0;entryY=0;entryDx=0;entryDy=0;exitX=1;exitY=0.75;exitDx=0;exitDy=0;" edge="1" parent="1" source="xMLn6wLN37BedrmqbdG--15" target="xMLn6wLN37BedrmqbdG--24">
          <mxGeometry width="50" height="50" relative="1" as="geometry">
            <mxPoint x="350" y="550" as="sourcePoint" />
            <mxPoint x="390" y="550" as="targetPoint" />
          </mxGeometry>
        </mxCell>
        <mxCell id="xMLn6wLN37BedrmqbdG--33" value="增删改" style="rhombus;whiteSpace=wrap;html=1;" vertex="1" parent="1">
          <mxGeometry x="30" y="330" width="100" height="60" as="geometry" />
        </mxCell>
        <mxCell id="xMLn6wLN37BedrmqbdG--34" value="管理员" style="rounded=0;whiteSpace=wrap;html=1;" vertex="1" parent="1">
          <mxGeometry x="540" y="155" width="120" height="60" as="geometry" />
        </mxCell>
        <mxCell id="xMLn6wLN37BedrmqbdG--36" style="edgeStyle=orthogonalEdgeStyle;rounded=0;orthogonalLoop=1;jettySize=auto;html=1;exitX=0.5;exitY=1;exitDx=0;exitDy=0;" edge="1" parent="1">
          <mxGeometry relative="1" as="geometry">
            <mxPoint x="425" y="110" as="sourcePoint" />
            <mxPoint x="425" y="110" as="targetPoint" />
          </mxGeometry>
        </mxCell>
        <mxCell id="xMLn6wLN37BedrmqbdG--37" value="" style="endArrow=none;html=1;rounded=0;entryX=0.167;entryY=1;entryDx=0;entryDy=0;entryPerimeter=0;exitX=1;exitY=0;exitDx=0;exitDy=0;" edge="1" parent="1" source="xMLn6wLN37BedrmqbdG--33" target="xMLn6wLN37BedrmqbdG--3">
          <mxGeometry width="50" height="50" relative="1" as="geometry">
            <mxPoint x="180" y="300" as="sourcePoint" />
            <mxPoint x="220" y="260" as="targetPoint" />
          </mxGeometry>
        </mxCell>
        <mxCell id="xMLn6wLN37BedrmqbdG--38" value="" style="endArrow=none;html=1;rounded=0;exitX=0.132;exitY=-0.033;exitDx=0;exitDy=0;exitPerimeter=0;entryX=0.8;entryY=0.667;entryDx=0;entryDy=0;entryPerimeter=0;" edge="1" parent="1" source="xMLn6wLN37BedrmqbdG--15" target="xMLn6wLN37BedrmqbdG--33">
          <mxGeometry width="50" height="50" relative="1" as="geometry">
            <mxPoint x="140" y="380" as="sourcePoint" />
            <mxPoint x="180" y="340" as="targetPoint" />
          </mxGeometry>
        </mxCell>
        <mxCell id="xMLn6wLN37BedrmqbdG--40" value="查询" style="rhombus;whiteSpace=wrap;html=1;" vertex="1" parent="1">
          <mxGeometry x="140" y="330" width="100" height="60" as="geometry" />
        </mxCell>
        <mxCell id="xMLn6wLN37BedrmqbdG--43" value="" style="endArrow=none;html=1;rounded=0;entryX=0.333;entryY=1;entryDx=0;entryDy=0;entryPerimeter=0;exitX=0.5;exitY=0;exitDx=0;exitDy=0;" edge="1" parent="1" source="xMLn6wLN37BedrmqbdG--40" target="xMLn6wLN37BedrmqbdG--3">
          <mxGeometry width="50" height="50" relative="1" as="geometry">
            <mxPoint x="220" y="270" as="sourcePoint" />
            <mxPoint x="305.03999999999996" y="145.00000000000023" as="targetPoint" />
          </mxGeometry>
        </mxCell>
        <mxCell id="xMLn6wLN37BedrmqbdG--44" value="" style="endArrow=none;html=1;rounded=0;entryX=0.5;entryY=1;entryDx=0;entryDy=0;exitX=0.34;exitY=0.022;exitDx=0;exitDy=0;exitPerimeter=0;" edge="1" parent="1" source="xMLn6wLN37BedrmqbdG--15" target="xMLn6wLN37BedrmqbdG--40">
          <mxGeometry width="50" height="50" relative="1" as="geometry">
            <mxPoint x="300" y="260" as="sourcePoint" />
            <mxPoint x="385.03999999999996" y="135.00000000000023" as="targetPoint" />
          </mxGeometry>
        </mxCell>
        <mxCell id="xMLn6wLN37BedrmqbdG--47" value="增删改" style="rhombus;whiteSpace=wrap;html=1;" vertex="1" parent="1">
          <mxGeometry x="375" y="120" width="100" height="60" as="geometry" />
        </mxCell>
        <mxCell id="xMLn6wLN37BedrmqbdG--48" value="审核" style="rhombus;whiteSpace=wrap;html=1;" vertex="1" parent="1">
          <mxGeometry x="375" y="190" width="100" height="60" as="geometry" />
        </mxCell>
        <mxCell id="xMLn6wLN37BedrmqbdG--50" value="用户名" style="ellipse;whiteSpace=wrap;html=1;" vertex="1" parent="1">
          <mxGeometry x="560" y="80" width="80" height="50" as="geometry" />
        </mxCell>
        <mxCell id="xMLn6wLN37BedrmqbdG--51" value="密码" style="ellipse;whiteSpace=wrap;html=1;" vertex="1" parent="1">
          <mxGeometry x="660" y="80" width="80" height="50" as="geometry" />
        </mxCell>
        <mxCell id="xMLn6wLN37BedrmqbdG--52" value="" style="endArrow=none;html=1;rounded=0;exitX=0.5;exitY=1;exitDx=0;exitDy=0;entryX=0.5;entryY=0;entryDx=0;entryDy=0;" edge="1" parent="1" source="xMLn6wLN37BedrmqbdG--50" target="xMLn6wLN37BedrmqbdG--34">
          <mxGeometry width="50" height="50" relative="1" as="geometry">
            <mxPoint x="300" y="180" as="sourcePoint" />
            <mxPoint x="330" y="150" as="targetPoint" />
          </mxGeometry>
        </mxCell>
        <mxCell id="xMLn6wLN37BedrmqbdG--53" value="" style="endArrow=none;html=1;rounded=0;exitX=1;exitY=0;exitDx=0;exitDy=0;entryX=0.5;entryY=1;entryDx=0;entryDy=0;" edge="1" parent="1" source="xMLn6wLN37BedrmqbdG--34" target="xMLn6wLN37BedrmqbdG--51">
          <mxGeometry width="50" height="50" relative="1" as="geometry">
            <mxPoint x="710" y="160" as="sourcePoint" />
            <mxPoint x="740" y="130" as="targetPoint" />
          </mxGeometry>
        </mxCell>
        <mxCell id="xMLn6wLN37BedrmqbdG--54" value="" style="endArrow=none;html=1;rounded=0;entryX=0.133;entryY=0.689;entryDx=0;entryDy=0;exitX=1;exitY=0.333;exitDx=0;exitDy=0;exitPerimeter=0;entryPerimeter=0;" edge="1" parent="1" source="xMLn6wLN37BedrmqbdG--3" target="xMLn6wLN37BedrmqbdG--47">
          <mxGeometry width="50" height="50" relative="1" as="geometry">
            <mxPoint x="350" y="190" as="sourcePoint" />
            <mxPoint x="390" y="190" as="targetPoint" />
          </mxGeometry>
        </mxCell>
        <mxCell id="xMLn6wLN37BedrmqbdG--55" value="" style="endArrow=none;html=1;rounded=0;entryX=0;entryY=0.5;entryDx=0;entryDy=0;exitX=0.85;exitY=0.675;exitDx=0;exitDy=0;exitPerimeter=0;" edge="1" parent="1" source="xMLn6wLN37BedrmqbdG--47">
          <mxGeometry width="50" height="50" relative="1" as="geometry">
            <mxPoint x="500" y="170" as="sourcePoint" />
            <mxPoint x="540" y="170" as="targetPoint" />
          </mxGeometry>
        </mxCell>
        <mxCell id="xMLn6wLN37BedrmqbdG--59" value="" style="endArrow=none;html=1;rounded=0;exitX=1;exitY=0.869;exitDx=0;exitDy=0;exitPerimeter=0;" edge="1" parent="1" source="xMLn6wLN37BedrmqbdG--3">
          <mxGeometry width="50" height="50" relative="1" as="geometry">
            <mxPoint x="325" y="270" as="sourcePoint" />
            <mxPoint x="375" y="220" as="targetPoint" />
          </mxGeometry>
        </mxCell>
        <mxCell id="xMLn6wLN37BedrmqbdG--60" value="" style="endArrow=none;html=1;rounded=0;exitX=1;exitY=0.5;exitDx=0;exitDy=0;" edge="1" parent="1" source="xMLn6wLN37BedrmqbdG--48">
          <mxGeometry width="50" height="50" relative="1" as="geometry">
            <mxPoint x="500" y="230" as="sourcePoint" />
            <mxPoint x="540" y="210" as="targetPoint" />
          </mxGeometry>
        </mxCell>
      </root>
    </mxGraphModel>
  </diagram>
</mxfile>
